PathFileType	4	(X/Y/Z)	/Users/itak/Documents/Research/Walk-IL/dataset/trc/00281_00010.trc
DataRate	CameraRate	NumFrames	NumMarkers	Units	OrigDataRate	OrigDataStartFrame	OrigNumFrames
100.000000	100.000000	4	54	mm	100.000000	460	614
Frame#	Time	RPSI			LPSI			L3			STRN			T10			C7			CLAV			RBAK			LBAK			LSHO			LUPA			LAEL			LAOL			LWTS			LWPS			LFRA			LIFD			LHPS			LHTS			RSHO			RUPA			RAEL			RAOL			RWTS			RWPS			RFRA			RIFD			RHTS			RHPS			RBHD			LFHD			RFHD			LBHD			LHIP			RASI			LASI			LKNE			LTHI			LANK			LTIP			LTOE			LMT1			LMT5			LHEE			RKNE			RTHI			RANK			RTIP			RTOE			RMT1			RMT5			RHEE			RHIP			*53			
		X1	Y1	Z1	X2	Y2	Z2	X3	Y3	Z3	X4	Y4	Z4	X5	Y5	Z5	X6	Y6	Z6	X7	Y7	Z7	X8	Y8	Z8	X9	Y9	Z9	X10	Y10	Z10	X11	Y11	Z11	X12	Y12	Z12	X13	Y13	Z13	X14	Y14	Z14	X15	Y15	Z15	X16	Y16	Z16	X17	Y17	Z17	X18	Y18	Z18	X19	Y19	Z19	X20	Y20	Z20	X21	Y21	Z21	X22	Y22	Z22	X23	Y23	Z23	X24	Y24	Z24	X25	Y25	Z25	X26	Y26	Z26	X27	Y27	Z27	X28	Y28	Z28	X29	Y29	Z29	X30	Y30	Z30	X31	Y31	Z31	X32	Y32	Z32	X33	Y33	Z33	X34	Y34	Z34	X35	Y35	Z35	X36	Y36	Z36	X37	Y37	Z37	X38	Y38	Z38	X39	Y39	Z39	X40	Y40	Z40	X41	Y41	Z41	X42	Y42	Z42	X43	Y43	Z43	X44	Y44	Z44	X45	Y45	Z45	X46	Y46	Z46	X47	Y47	Z47	X48	Y48	Z48	X49	Y49	Z49	X50	Y50	Z50	X51	Y51	Z51	X52	Y52	Z52	X53	Y53	Z53	X54	Y54	Z54	

461	4.600000000000001	-722.0841674804688	989.139892578125	421.0309143066406	-553.3463134765625	986.1622924804688	373.4314880371094	-624.9998168945312	1058.620727539062	407.9507751464844	-563.6160278320312	1241.745239257812	646.91064453125	-624.6109619140625	1175.583984375	387.5780029296875	-593.402099609375	1421.491821289062	425.0443725585938	-570.7570190429688	1339.937255859375	580.8862915039062	-678.947265625	1284.571899414062	392.3355407714844	-496.432861328125	1381.989013671875	387.1667785644531	-428.582763671875	1386.518920898438	465.2869873046875	-359.2731018066406	1272.703247070312	423.9445190429688	-327.3407287597656	1072.103515625	428.7546081542969	-401.3645629882812	1052.74169921875	387.1489562988281	-329.7266845703125	848.64404296875	515.8629760742188	-283.8962097167969	839.039794921875	460.4266662597656	-308.2417907714844	969.284912109375	438.4872436523438	-323.7448120117188	663.5540771484375	521.0440673828125	-282.5964660644531	749.6395263671875	466.5849914550781	-298.0101623535156	753.1336669921875	531.0917358398438	-735.6280517578125	1403.567749023438	520.2900390625	-804.82861328125	1349.121215820312	523.1890869140625	-864.88916015625	1088.549560546875	496.8991394042969	-779.5215454101562	1080.208984375	456.3735656738281	-817.5010375976562	852.7349243164062	566.7647094726562	-896.1264038085938	858.16162109375	534.25927734375	-879.2518920898438	1020.748413085938	516.0899658203125	-825.466796875	668.3538208007812	544.5735473632812	-836.7493896484375	734.0537109375	581.56201171875	-894.9408569335938	742.7850341796875	542.137451171875	-651.1436767578125	1586.949096679688	490.4336242675781	-458.7220764160156	1608.454956054688	578.8499145507812	-538.7193603515625	1617.131713867188	624.975341796875	-524.3564453125	1564.418334960938	420.6834411621094	-440.1879577636719	939.4188842773438	412.7513427734375	-689.2962646484375	952.5061645507812	642.2598876953125	-449.2655639648438	949.8952026367188	560.3873901367188	-511.328369140625	474.9892272949219	527.7958984375	-469.7628173828125	614.146240234375	506.8673400878906	-605.2916870117188	52.47471237182617	415.9635620117188	-552.8245849609375	249.1622009277344	475.3726806640625	-662.470947265625	38.47016906738281	624.7665405273438	-701.4749755859375	30.4838695526123	549.9573974609375	-592.3504638671875	46.2221565246582	539.66796875	-663.9659423828125	44.47307586669922	369.8852233886719	-714.874755859375	515.5648803710938	739.85693359375	-758.3743286132812	759.56396484375	660.9209594726562	-859.9662475585938	130.2320861816406	553.0611572265625	-730.0040283203125	395.3835754394531	723.2363891601562	-731.849853515625	53.16875457763672	685.8901977539062	-721.001953125	67.53114318847656	618.6520385742188	-835.9111328125	79.26252746582031	642.0572509765625	-839.6278686523438	148.1439361572266	486.7187805175781	-792.5980224609375	943.284912109375	550.355224609375	nan	nan	nan	
462	4.61	-724.13818359375	989.1566162109375	431.9552307128906	-556.5742797851562	985.982421875	380.546142578125	-626.8361206054688	1059.297607421875	415.4560241699219	-561.03662109375	1241.703002929688	654.1453247070312	-625.2454833984375	1176.116821289062	395.5042114257812	-593.900146484375	1421.86572265625	433.2244567871094	-569.40087890625	1339.94873046875	588.491943359375	-679.2872924804688	1284.733276367188	400.9050598144531	-497.0859069824219	1382.905517578125	394.2656860351562	-428.5936279296875	1387.495239257812	471.7093505859375	-359.3961181640625	1273.76611328125	429.7320861816406	-326.4437255859375	1073.654541015625	435.5221252441406	-401.0951232910156	1053.268432617188	395.3238220214844	-324.6730346679688	852.153076171875	527.0225219726562	-279.9693603515625	841.7999267578125	470.5721435546875	-306.1807556152344	971.138671875	446.5546569824219	-315.2904052734375	667.4107055664062	536.93603515625	-277.1103210449219	752.8311767578125	479.0362548828125	-291.0521240234375	757.7194213867188	543.8858642578125	-735.146728515625	1403.2060546875	529.6608276367188	-804.341796875	1348.892944335938	532.625244140625	-863.75341796875	1088.519897460938	502.8501892089844	-778.3352661132812	1081.004150390625	462.3796081542969	-815.3407592773438	852.0404663085938	569.4315185546875	-893.919677734375	857.3008422851562	537.1433715820312	-877.6826782226562	1020.257873535156	521.273193359375	-822.8311767578125	667.3522338867188	545.5103759765625	-833.70263671875	732.9745483398438	582.58251953125	-892.0645141601562	741.804443359375	543.5252685546875	-651.9254760742188	1586.552001953125	499.5255737304688	-458.9801330566406	1609.217041015625	586.5114135742188	-538.6385498046875	1617.324462890625	633.2556762695312	-525.585693359375	1564.885864257812	428.8394470214844	-442.7428588867188	939.1077270507812	417.2829284667969	-685.984619140625	953.369873046875	652.2869262695312	-447.5662841796875	949.9190063476562	565.065185546875	-511.2815856933594	474.7137145996094	531.319580078125	-470.3029479980469	613.9555053710938	510.4554748535156	-606.0504150390625	52.96942138671875	416.1096496582031	-553.201416015625	249.3558502197266	477.2032775878906	-662.35107421875	38.39413833618164	624.8961791992188	-701.6880493164062	30.46522331237793	550.1192626953125	-592.5245361328125	46.42112350463867	539.6884765625	-664.8615112304688	45.41770553588867	370.11328125	-708.403076171875	517.0635986328125	752.4144897460938	-754.4896850585938	760.7144165039062	673.7323608398438	-853.3712768554688	120.8669738769531	588.9759521484375	-722.8126220703125	396.0173645019531	741.3236083984375	-718.6578369140625	53.53801727294922	720.4228515625	-710.8585815429688	64.40348052978516	652.1521606445312	-824.7483520507812	75.35495758056641	679.5706787109375	-836.1193237304688	135.567138671875	520.8836059570312	-791.6516723632812	944.2335815429688	563.0493774414062	nan	nan	nan	
463	4.62	-726.0053100585938	989.1057739257812	442.852294921875	-559.66650390625	985.7303466796875	387.7720031738281	-628.5761108398438	1059.93701171875	422.9564514160156	-558.4135131835938	1241.563354492188	661.2963256835938	-625.8906860351562	1176.55712890625	403.4716186523438	-594.360595703125	1422.145751953125	441.3818359375	-567.9970092773438	1339.849853515625	596.0408935546875	-679.6585693359375	1284.827514648438	409.4655456542969	-497.7410583496094	1383.70556640625	401.3164672851562	-428.5733947753906	1388.335815429688	478.0735778808594	-359.5245666503906	1274.666748046875	435.4869995117188	-325.6703796386719	1075.05859375	442.3908996582031	-400.6773986816406	1053.687622070312	403.1792907714844	-320.350830078125	855.7030639648438	538.1817626953125	-276.2811889648438	844.6698608398438	481.2481994628906	-304.2729187011719	972.8944702148438	454.8473815917969	-306.7813110351562	671.5206909179688	552.9241943359375	-271.5184020996094	756.2879028320312	492.0381164550781	-284.6439514160156	762.5438232421875	556.96142578125	-734.5839233398438	1402.816772460938	539.0498046875	-803.783203125	1348.652099609375	542.1276245117188	-862.5979614257812	1088.50927734375	509.027587890625	-777.12109375	1081.787719726562	468.5909118652344	-813.2456665039062	851.4793090820312	572.3787841796875	-891.7323608398438	856.5062255859375	540.3168334960938	-876.0814819335938	1019.795043945312	526.7042236328125	-820.2127685546875	666.4402465820312	546.6851806640625	-830.6566772460938	732.0113525390625	583.8317260742188	-889.2313842773438	740.9373779296875	545.1985473632812	-652.6735229492188	1586.082275390625	508.5902404785156	-459.2348022460938	1609.847778320312	594.2300415039062	-538.5609130859375	1617.392456054688	641.561279296875	-526.7606811523438	1565.283813476562	437.0132751464844	-445.1973266601562	938.7919311523438	422.0234680175781	-682.682861328125	954.1239013671875	662.1793823242188	-445.9155883789062	949.8683471679688	569.8309936523438	-511.2398681640625	474.3960266113281	534.9532470703125	-470.7763977050781	613.7423095703125	514.1212158203125	-606.9452514648438	53.50939178466797	416.27001953125	-553.6612548828125	249.5322875976562	479.1012573242188	-662.2015380859375	38.32802963256836	625.025634765625	-701.9614868164062	30.4482421875	550.3681030273438	-592.7603149414062	46.64909362792969	539.6954345703125	-665.9124145507812	46.46398162841797	370.3870544433594	-702.2705688476562	518.2249755859375	764.25390625	-750.713134765625	761.5435180664062	686.15625	-845.1876831054688	111.7643737792969	624.8798828125	-715.4721069335938	396.4981384277344	758.77734375	-703.490234375	54.27317047119141	753.48876953125	-698.9461059570312	61.80288696289062	684.5048828125	-811.5745849609375	71.58295440673828	716.3026733398438	-831.2357788085938	123.4630813598633	555.386962890625	-790.5872192382812	944.9989624023438	575.5790405273438	nan	nan	nan	
464	4.63	-727.671875	988.9776000976562	453.7092895507812	-562.5936889648438	985.4005126953125	395.0892639160156	-630.1683959960938	1060.436889648438	430.4994812011719	-555.7687377929688	1241.330688476562	668.3778076171875	-626.549072265625	1176.896118164062	411.4753112792969	-594.78125	1422.32568359375	449.5245971679688	-566.5548095703125	1339.649658203125	603.5422973632812	-680.0418701171875	1284.845458984375	418.0394592285156	-498.4007873535156	1384.379760742188	408.3268432617188	-428.5211181640625	1389.02587890625	484.3827819824219	-359.652099609375	1275.40771484375	441.2208251953125	-324.9612121582031	1076.291259765625	449.3167419433594	-400.0981140136719	1053.988037109375	410.718017578125	-316.6642456054688	859.2792358398438	549.3355712890625	-272.8015747070312	847.6287841796875	492.3420104980469	-302.4761352539062	974.5559692382812	463.3011169433594	-298.367919921875	675.8893432617188	568.9663696289062	-265.9021606445312	759.9747924804688	505.4450073242188	-278.7561645507812	767.5662841796875	570.2501831054688	-733.9466552734375	1402.398559570312	548.4605712890625	-803.1524658203125	1348.391357421875	551.7118530273438	-861.4299926757812	1088.504028320312	515.476318359375	-775.8980102539062	1082.546875	475.0176696777344	-811.1885986328125	850.99951171875	575.5907592773438	-889.573486328125	855.769775390625	543.8330688476562	-874.4862060546875	1019.36962890625	532.4137573242188	-817.6078491210938	665.612060546875	548.0918579101562	-827.6122436523438	731.1444702148438	585.3186645507812	-886.438720703125	740.165771484375	547.189697265625	-653.3759765625	1585.539428710938	517.6328125	-459.4712219238281	1610.341918945312	601.996826171875	-538.477783203125	1617.339599609375	649.8853759765625	-527.8826293945312	1565.6025390625	445.2012329101562	-447.5192260742188	938.45458984375	426.9768981933594	-679.418701171875	954.7477416992188	671.9505004882812	-444.3321533203125	949.737548828125	574.7015991210938	-511.1712341308594	474.0379028320312	538.6535034179688	-471.1722412109375	613.5093383789062	517.861572265625	-607.9490966796875	54.08820343017578	416.4412841796875	-554.1754760742188	249.6915740966797	481.0340576171875	-662.0332641601562	38.26484680175781	625.1600341796875	-702.2688598632812	30.4542407989502	550.7164306640625	-593.0629272460938	46.88612365722656	539.6922607421875	-667.1005859375	47.60923767089844	370.6981506347656	-696.5345458984375	519.0526733398438	775.4691162109375	-747.0703125	762.0640258789062	698.203369140625	-835.3740234375	103.0785064697266	660.6168212890625	-707.9925537109375	396.8407287597656	775.6383056640625	-686.55224609375	55.44784545898438	785.0358276367188	-685.3976440429688	59.79462051391602	715.6451416015625	-796.4976196289062	68.11077880859375	752.1449584960938	-824.8810424804688	111.9567413330078	590.063232421875	-789.3829345703125	945.5267333984375	587.8955078125	nan	nan	nan	
